{
  "accessors": [
    {
      "bufferView": 2,
      "componentType": 5126,
      "count": 65532,
      "max": [
        1.038665533065796,
        1.749298095703125,
        2.2402708530426025
      ],
      "min": [
        -1.0386654138565063,
        -0.36073699593544006,
        -0.3281426727771759
      ],
      "type": "VEC3"
    },
    {
      "bufferView": 2,
      "byteOffset": 786384,
      "componentType": 5126,
      "count": 65532,
      "max": [
        0.9999992847442627,
        1.0,
        1.0
      ],
      "min": [
        -0.9999980926513672,
        -0.9999831914901733,
        -1.0
      ],
      "type": "VEC3"
    },
    {
      "bufferView": 1,
      "componentType": 5126,
      "count": 65532,
      "max": [
        1.0000001192092896,
        1.0000001192092896
      ],
      "min": [
        0.0,
        7.517322228522971e-05
      ],
      "type": "VEC2"
    },
    {
      "bufferView": 0,
      "componentType": 5125,
      "count": 327375,
      "type": "SCALAR"
    },
    {
      "bufferView": 2,
      "byteOffset": 1572768,
      "componentType": 5126,
      "count": 30464,
      "max": [
        1.0359420776367188,
        1.6940315961837769,
        2.1497721672058105
      ],
      "min": [
        -1.0286763906478882,
        -0.3535875082015991,
        -0.3206714689731598
      ],
      "type": "VEC3"
    },
    {
      "bufferView": 2,
      "byteOffset": 1938336,
      "componentType": 5126,
      "count": 30464,
      "max": [
        0.9999980330467224,
        0.9999664425849915,
        1.0
      ],
      "min": [
        -0.9999991655349731,
        -1.0,
        -1.0
      ],
      "type": "VEC3"
    },
    {
      "bufferView": 1,
      "byteOffset": 524256,
      "componentType": 5126,
      "count": 30464,
      "max": [
        1.0000001192092896,
        1.0000001192092896
      ],
      "min": [
        0.0,
        0.00012676588085014373
      ],
      "type": "VEC2"
    },
    {
      "bufferView": 0,
      "byteOffset": 1309500,
      "componentType": 5125,
      "count": 147345,
      "type": "SCALAR"
    },
    {
      "bufferView": 2,
      "byteOffset": 2303904,
      "componentType": 5126,
      "count": 1038,
      "max": [
        0.35020115971565247,
        0.3707427680492401,
        -0.025685060769319534
      ],
      "min": [
        -0.35020115971565247,
        0.2911507189273834,
        -0.225120410323143
      ],
      "type": "VEC3"
    },
    {
      "bufferView": 2,
      "byteOffset": 2316360,
      "componentType": 5126,
      "count": 1038,
      "max": [
        0.9848784804344177,
        0.8711420297622681,
        0.8770506381988525
      ],
      "min": [
        -0.9848798513412476,
        -0.8711435794830322,
        -0.8786859512329102
      ],
      "type": "VEC3"
    },
    {
      "bufferView": 1,
      "byteOffset": 767968,
      "componentType": 5126,
      "count": 1038,
      "max": [
        0.8418939709663391,
        0.8233856558799744
      ],
      "min": [
        0.8158961534500122,
        0.586053729057312
      ],
      "type": "VEC2"
    },
    {
      "bufferView": 0,
      "byteOffset": 1898880,
      "componentType": 5125,
      "count": 3984,
      "type": "SCALAR"
    },
    {
      "bufferView": 2,
      "byteOffset": 2328816,
      "componentType": 5126,
      "count": 2676,
      "max": [
        0.8466194272041321,
        0.866738498210907,
        0.7173892855644226
      ],
      "min": [
        -0.8466194272041321,
        0.40889018774032593,
        -0.3158651292324066
      ],
      "type": "VEC3"
    },
    {
      "bufferView": 2,
      "byteOffset": 2360928,
      "componentType": 5126,
      "count": 2676,
      "max": [
        0.9874866008758545,
        0.9999995827674866,
        0.9999797344207764
      ],
      "min": [
        -0.9874866008758545,
        -1.0,
        -0.9999796748161316
      ],
      "type": "VEC3"
    },
    {
      "bufferView": 1,
      "byteOffset": 776272,
      "componentType": 5126,
      "count": 2676,
      "max": [
        0.9998733401298523,
        0.585800290107727
      ],
      "min": [
        0.8158959746360779,
        0.00012671391596086323
      ],
      "type": "VEC2"
    },
    {
      "bufferView": 0,
      "byteOffset": 1914816,
      "componentType": 5125,
      "count": 11376,
      "type": "SCALAR"
    }
  ],
  "asset": {
    "extras": {
      "author": "Xeno (https://sketchfab.com/XenoFalcon)",
      "license": "SKETCHFAB Standard (https://sketchfab.com/licenses)",
      "source": "https://sketchfab.com/3d-models/daft-punk-thomas-helmet-re-uploaded-35d99fd2df6e40cd87c14f67282d73d4",
      "title": "Daft Punk Thomas Helmet (Re-uploaded)"
    },
    "generator": "Sketchfab-16.21.0",
    "version": "2.0"
  },
  "bufferViews": [
    {
      "buffer": 0,
      "byteLength": 1960320,
      "name": "floatBufferViews",
      "target": 34963
    },
    {
      "buffer": 0,
      "byteLength": 797680,
      "byteOffset": 1960320,
      "byteStride": 8,
      "name": "floatBufferViews",
      "target": 34962
    },
    {
      "buffer": 0,
      "byteLength": 2393040,
      "byteOffset": 2758000,
      "byteStride": 12,
      "name": "floatBufferViews",
      "target": 34962
    }
  ],
  "buffers": [
    {
      "byteLength": 5151040,
      "uri": "scene.bin"
    }
  ],
  "materials": [
    {
      "doubleSided": true,
      "name": "Chrome",
      "pbrMetallicRoughness": {
        "baseColorFactor": [
          0.8,
          0.8,
          0.8,
          1.0
        ],
        "roughnessFactor": 0.0
      }
    },
    {
      "doubleSided": true,
      "name": "Diffuse_Black",
      "pbrMetallicRoughness": {
        "baseColorFactor": [
          0.0,
          0.0,
          0.0,
          1.0
        ],
        "metallicFactor": 0.0,
        "roughnessFactor": 0.19595917942265426
      }
    },
    {
      "doubleSided": true,
      "name": "Visor",
      "pbrMetallicRoughness": {
        "baseColorFactor": [
          0.0,
          0.0,
          0.0,
          1.0
        ],
        "metallicFactor": 0.0,
        "roughnessFactor": 0.0
      }
    }
  ],
  "meshes": [
    {
      "name": "Helmet_Chrome_0",
      "primitives": [
        {
          "attributes": {
            "NORMAL": 1,
            "POSITION": 0,
            "TEXCOORD_0": 2
          },
          "indices": 3,
          "material": 0,
          "mode": 4
        }
      ]
    },
    {
      "name": "Helmet_Chrome_0",
      "primitives": [
        {
          "attributes": {
            "NORMAL": 5,
            "POSITION": 4,
            "TEXCOORD_0": 6
          },
          "indices": 7,
          "material": 0,
          "mode": 4
        }
      ]
    },
    {
      "name": "Helmet_Diffuse Black_0",
      "primitives": [
        {
          "attributes": {
            "NORMAL": 9,
            "POSITION": 8,
            "TEXCOORD_0": 10
          },
          "indices": 11,
          "material": 1,
          "mode": 4
        }
      ]
    },
    {
      "name": "Visor_Visor_0",
      "primitives": [
        {
          "attributes": {
            "NORMAL": 13,
            "POSITION": 12,
            "TEXCOORD_0": 14
          },
          "indices": 15,
          "material": 2,
          "mode": 4
        }
      ]
    }
  ],
  "nodes": [
    {
      "children": [
        1
      ],
      "matrix": [
        1.0,
        0.0,
        0.0,
        0.0,
        0.0,
        2.220446049250313e-16,
        -1.0,
        0.0,
        0.0,
        1.0,
        2.220446049250313e-16,
        0.0,
        0.0,
        0.0,
        0.0,
        1.0
      ],
      "name": "Sketchfab_model"
    },
    {
      "children": [
        2
      ],
      "matrix": [
        0.009999999776482582,
        0.0,
        0.0,
        0.0,
        0.0,
        0.0,
        0.009999999776482582,
        0.0,
        0.0,
        -0.009999999776482582,
        0.0,
        0.0,
        0.0,
        0.0,
        0.0,
        1.0
      ],
      "name": "37f3c6ed2ac548d5bc248f8e3b007023.fbx"
    },
    {
      "children": [
        3,
        7
      ],
      "name": "RootNode"
    },
    {
      "children": [
        4,
        5,
        6
      ],
      "matrix": [
        100.0,
        0.0,
        0.0,
        0.0,
        0.0,
        99.9999999999999,
        4.371138828673792e-06,
        0.0,
        0.0,
        -4.371138828673792e-06,
        99.9999999999999,
        0.0,
        0.0,
        46.046173095703125,
        -110.77898406982422,
        1.0
      ],
      "name": "Helmet"
    },
    {
      "mesh": 0,
      "name": "Helmet_Chrome_0"
    },
    {
      "mesh": 1,
      "name": "Helmet_Chrome_0"
    },
    {
      "mesh": 2,
      "name": "Helmet_Diffuse Black_0"
    },
    {
      "children": [
        8
      ],
      "matrix": [
        100.0,
        0.0,
        0.0,
        0.0,
        0.0,
        99.9999999999999,
        4.371138828673792e-06,
        0.0,
        0.0,
        -4.371138828673792e-06,
        99.9999999999999,
        0.0,
        0.0,
        46.046173095703125,
        -110.77898406982422,
        1.0
      ],
      "name": "Visor"
    },
    {
      "mesh": 3,
      "name": "Visor_Visor_0"
    }
  ],
  "scene": 0,
  "scenes": [
    {
      "name": "Sketchfab_Scene",
      "nodes": [
        0
      ]
    }
  ]
}
