{
  "accessors": [
    {
      "bufferView": 1,
      "componentType": 5126,
      "count": 65532,
      "max": [
        1.0564491748809814,
        1.2715697288513184,
        0.508403480052948
      ],
      "min": [
        -0.8835145831108093,
        -0.19323894381523132,
        -0.6693254709243774
      ],
      "type": "VEC3"
    },
    {
      "bufferView": 1,
      "byteOffset": 786384,
      "componentType": 5126,
      "count": 65532,
      "max": [
        0.9999992251396179,
        0.9999695420265198,
        0.9998520612716675
      ],
      "min": [
        -0.9999974966049194,
        -0.9922323822975159,
        -0.9973800182342529
      ],
      "type": "VEC3"
    },
    {
      "bufferView": 0,
      "componentType": 5125,
      "count": 365040,
      "type": "SCALAR"
    },
    {
      "bufferView": 1,
      "byteOffset": 1572768,
      "componentType": 5126,
      "count": 65532,
      "max": [
        1.0563212633132935,
        1.270934820175171,
        0.5058135390281677
      ],
      "min": [
        -1.0535838603973389,
        -0.7901861071586609,
        -0.9175291657447815
      ],
      "type": "VEC3"
    },
    {
      "bufferView": 1,
      "byteOffset": 2359152,
      "componentType": 5126,
      "count": 65532,
      "max": [
        0.9999985694885254,
        0.9998483657836914,
        0.9980448484420776
      ],
      "min": [
        -0.9999246001243591,
        -0.9999500513076782,
        -0.9999440312385559
      ],
      "type": "VEC3"
    },
    {
      "bufferView": 0,
      "byteOffset": 1460160,
      "componentType": 5125,
      "count": 339942,
      "type": "SCALAR"
    },
    {
      "bufferView": 1,
      "byteOffset": 3145536,
      "componentType": 5126,
      "count": 65532,
      "max": [
        0.9638319611549377,
        1.1973425149917603,
        2.00710391998291
      ],
      "min": [
        -1.0536658763885498,
        -0.7901870012283325,
        -0.9175453782081604
      ],
      "type": "VEC3"
    },
    {
      "bufferView": 1,
      "byteOffset": 3931920,
      "componentType": 5126,
      "count": 65532,
      "max": [
        0.9999992251396179,
        0.9983171820640564,
        0.9600009918212891
      ],
      "min": [
        -0.9999867677688599,
        -0.9996585845947266,
        -0.999973475933075
      ],
      "type": "VEC3"
    },
    {
      "bufferView": 0,
      "byteOffset": 2819928,
      "componentType": 5125,
      "count": 348807,
      "type": "SCALAR"
    },
    {
      "bufferView": 1,
      "byteOffset": 4718304,
      "componentType": 5126,
      "count": 65532,
      "max": [
        1.003289818763733,
        1.1898819208145142,
        2.0443782806396484
      ],
      "min": [
        -0.8812010288238525,
        -0.3083043694496155,
        -0.7647613883018494
      ],
      "type": "VEC3"
    },
    {
      "bufferView": 1,
      "byteOffset": 5504688,
      "componentType": 5126,
      "count": 65532,
      "max": [
        0.9999997019767761,
        0.9972237944602966,
        0.9999724626541138
      ],
      "min": [
        -0.9999983310699463,
        -0.9999951720237732,
        -0.9996548295021057
      ],
      "type": "VEC3"
    },
    {
      "bufferView": 0,
      "byteOffset": 4215156,
      "componentType": 5125,
      "count": 343506,
      "type": "SCALAR"
    },
    {
      "bufferView": 1,
      "byteOffset": 6291072,
      "componentType": 5126,
      "count": 65532,
      "max": [
        1.0032105445861816,
        1.2020339965820313,
        2.0443782806396484
      ],
      "min": [
        -0.8798343539237976,
        -0.6028122901916504,
        -0.8523225784301758
      ],
      "type": "VEC3"
    },
    {
      "bufferView": 1,
      "byteOffset": 7077456,
      "componentType": 5126,
      "count": 65532,
      "max": [
        0.9999997019767761,
        0.9999918341636658,
        0.9999971985816956
      ],
      "min": [
        -0.9999960064888,
        -0.9998803734779358,
        -0.9999355673789978
      ],
      "type": "VEC3"
    },
    {
      "bufferView": 0,
      "byteOffset": 5589180,
      "componentType": 5125,
      "count": 323034,
      "type": "SCALAR"
    },
    {
      "bufferView": 1,
      "byteOffset": 7863840,
      "componentType": 5126,
      "count": 65532,
      "max": [
        1.0000293254852295,
        1.1584023237228394,
        2.0421948432922363
      ],
      "min": [
        -0.9269923567771912,
        -0.8989786505699158,
        -0.8179987072944641
      ],
      "type": "VEC3"
    },
    {
      "bufferView": 1,
      "byteOffset": 8650224,
      "componentType": 5126,
      "count": 65532,
      "max": [
        0.9999735355377197,
        0.999974250793457,
        0.9999867081642151
      ],
      "min": [
        -0.9999937415122986,
        -0.9999755024909973,
        -0.9999970197677612
      ],
      "type": "VEC3"
    },
    {
      "bufferView": 0,
      "byteOffset": 6881316,
      "componentType": 5125,
      "count": 322659,
      "type": "SCALAR"
    },
    {
      "bufferView": 1,
      "byteOffset": 9436608,
      "componentType": 5126,
      "count": 65532,
      "max": [
        1.0031967163085938,
        1.1980762481689453,
        2.0443172454833984
      ],
      "min": [
        -0.9638141989707947,
        -1.2834454774856567,
        -0.8575643301010132
      ],
      "type": "VEC3"
    },
    {
      "bufferView": 1,
      "byteOffset": 10222992,
      "componentType": 5126,
      "count": 65532,
      "max": [
        0.999997615814209,
        0.9999668002128601,
        0.9997054934501648
      ],
      "min": [
        -0.9999938607215881,
        -0.9999588131904602,
        -0.9998970627784729
      ],
      "type": "VEC3"
    },
    {
      "bufferView": 0,
      "byteOffset": 8171952,
      "componentType": 5125,
      "count": 320259,
      "type": "SCALAR"
    },
    {
      "bufferView": 1,
      "byteOffset": 11009376,
      "componentType": 5126,
      "count": 65532,
      "max": [
        0.772426426410675,
        0.9921998977661133,
        1.8855690956115723
      ],
      "min": [
        -0.996847927570343,
        -1.552437424659729,
        -0.6217115521430969
      ],
      "type": "VEC3"
    },
    {
      "bufferView": 1,
      "byteOffset": 11795760,
      "componentType": 5126,
      "count": 65532,
      "max": [
        0.9998080134391785,
        0.9999668002128601,
        0.999984085559845
      ],
      "min": [
        -0.9996322989463806,
        -0.9992507100105286,
        -0.999596357345581
      ],
      "type": "VEC3"
    },
    {
      "bufferView": 0,
      "byteOffset": 9452988,
      "componentType": 5125,
      "count": 327084,
      "type": "SCALAR"
    },
    {
      "bufferView": 1,
      "byteOffset": 12582144,
      "componentType": 5126,
      "count": 65532,
      "max": [
        0.9819840788841248,
        1.2020339965820313,
        1.8510628938674927
      ],
      "min": [
        -1.0017597675323486,
        -1.6291812658309937,
        -1.0587832927703857
      ],
      "type": "VEC3"
    },
    {
      "bufferView": 1,
      "byteOffset": 13368528,
      "componentType": 5126,
      "count": 65532,
      "max": [
        0.9997771382331848,
        0.9999955296516418,
        0.9999939203262329
      ],
      "min": [
        -0.9997523427009583,
        -0.9998837113380432,
        -0.9999154210090637
      ],
      "type": "VEC3"
    },
    {
      "bufferView": 0,
      "byteOffset": 10761324,
      "componentType": 5125,
      "count": 320991,
      "type": "SCALAR"
    },
    {
      "bufferView": 1,
      "byteOffset": 14154912,
      "componentType": 5126,
      "count": 65532,
      "max": [
        2.863082045223564e-05,
        1.1817419528961182,
        2.044339418411255
      ],
      "min": [
        -0.9884198307991028,
        -1.3622493743896484,
        -0.5883651971817017
      ],
      "type": "VEC3"
    },
    {
      "bufferView": 1,
      "byteOffset": 14941296,
      "componentType": 5126,
      "count": 65532,
      "max": [
        0.9999982118606567,
        0.9998909831047058,
        0.9999853372573853
      ],
      "min": [
        -0.9999998211860657,
        -0.9999203681945801,
        -0.9999449253082275
      ],
      "type": "VEC3"
    },
    {
      "bufferView": 0,
      "byteOffset": 12045288,
      "componentType": 5125,
      "count": 334668,
      "type": "SCALAR"
    },
    {
      "bufferView": 1,
      "byteOffset": 15727680,
      "componentType": 5126,
      "count": 65532,
      "max": [
        -0.0009808472823351622,
        0.7595534324645996,
        1.9133739471435547
      ],
      "min": [
        -1.0028883218765259,
        -1.6280895471572876,
        -1.0447324514389038
      ],
      "type": "VEC3"
    },
    {
      "bufferView": 1,
      "byteOffset": 16514064,
      "componentType": 5126,
      "count": 65532,
      "max": [
        0.999973714351654,
        0.9994620680809021,
        0.9999939203262329
      ],
      "min": [
        -0.9999964833259583,
        -0.9999845027923584,
        -0.9995987415313721
      ],
      "type": "VEC3"
    },
    {
      "bufferView": 0,
      "byteOffset": 13383960,
      "componentType": 5125,
      "count": 332397,
      "type": "SCALAR"
    },
    {
      "bufferView": 1,
      "byteOffset": 17300448,
      "componentType": 5126,
      "count": 65532,
      "max": [
        0.011411108076572418,
        1.121936321258545,
        2.044339418411255
      ],
      "min": [
        -1.0028883218765259,
        -1.6092957258224487,
        -1.057180404663086
      ],
      "type": "VEC3"
    },
    {
      "bufferView": 1,
      "byteOffset": 18086832,
      "componentType": 5126,
      "count": 65532,
      "max": [
        0.9999602437019348,
        0.9996117949485779,
        0.999898374080658
      ],
      "min": [
        -1.0,
        -0.9999802112579346,
        -0.9999398589134216
      ],
      "type": "VEC3"
    },
    {
      "bufferView": 0,
      "byteOffset": 14713548,
      "componentType": 5125,
      "count": 292974,
      "type": "SCALAR"
    },
    {
      "bufferView": 1,
      "byteOffset": 18873216,
      "componentType": 5126,
      "count": 44381,
      "max": [
        1.056296467781067,
        1.2617359161376953,
        2.044313907623291
      ],
      "min": [
        -1.0526255369186401,
        -1.6213598251342773,
        -1.0576246976852417
      ],
      "type": "VEC3"
    },
    {
      "bufferView": 1,
      "byteOffset": 19405788,
      "componentType": 5126,
      "count": 44381,
      "max": [
        0.9999979734420776,
        0.9998016953468323,
        0.9999853372573853
      ],
      "min": [
        -0.9999969601631165,
        -0.9995735883712769,
        -0.9999706149101257
      ],
      "type": "VEC3"
    },
    {
      "bufferView": 0,
      "byteOffset": 15885444,
      "componentType": 5125,
      "count": 107565,
      "type": "SCALAR"
    }
  ],
  "asset": {
    "extras": {
      "author": "SonicVisual (https://sketchfab.com/sonicvisual)",
      "license": "CC-BY-4.0 (http://creativecommons.org/licenses/by/4.0/)",
      "source": "https://sketchfab.com/3d-models/superman-vs-batman-helmet-printable-stl-ceccf05d4a124c34a2bb3185fe0b6f0a",
      "title": "Superman vs Batman Helmet Printable STL"
    },
    "generator": "Sketchfab-16.61.0",
    "version": "2.0"
  },
  "bufferViews": [
    {
      "buffer": 0,
      "byteLength": 16315704,
      "name": "floatBufferViews",
      "target": 34963
    },
    {
      "buffer": 0,
      "byteLength": 19938360,
      "byteOffset": 16315704,
      "byteStride": 12,
      "name": "floatBufferViews",
      "target": 34962
    }
  ],
  "buffers": [
    {
      "byteLength": 36254064,
      "uri": "scene.bin"
    }
  ],
  "materials": [
    {
      "doubleSided": true,
      "name": "Scene_-_Root",
      "pbrMetallicRoughness": {
        "baseColorFactor": [
          0.04825934533322086,
          0.04825934533322086,
          0.04825934533322086,
          1.0
        ],
        "roughnessFactor": 0.2502880673983264
      }
    }
  ],
  "meshes": [
    {
      "name": "Object_0",
      "primitives": [
        {
          "attributes": {
            "NORMAL": 1,
            "POSITION": 0
          },
          "indices": 2,
          "material": 0,
          "mode": 4
        }
      ]
    },
    {
      "name": "Object_1",
      "primitives": [
        {
          "attributes": {
            "NORMAL": 4,
            "POSITION": 3
          },
          "indices": 5,
          "material": 0,
          "mode": 4
        }
      ]
    },
    {
      "name": "Object_2",
      "primitives": [
        {
          "attributes": {
            "NORMAL": 7,
            "POSITION": 6
          },
          "indices": 8,
          "material": 0,
          "mode": 4
        }
      ]
    },
    {
      "name": "Object_3",
      "primitives": [
        {
          "attributes": {
            "NORMAL": 10,
            "POSITION": 9
          },
          "indices": 11,
          "material": 0,
          "mode": 4
        }
      ]
    },
    {
      "name": "Object_4",
      "primitives": [
        {
          "attributes": {
            "NORMAL": 13,
            "POSITION": 12
          },
          "indices": 14,
          "material": 0,
          "mode": 4
        }
      ]
    },
    {
      "name": "Object_5",
      "primitives": [
        {
          "attributes": {
            "NORMAL": 16,
            "POSITION": 15
          },
          "indices": 17,
          "material": 0,
          "mode": 4
        }
      ]
    },
    {
      "name": "Object_6",
      "primitives": [
        {
          "attributes": {
            "NORMAL": 19,
            "POSITION": 18
          },
          "indices": 20,
          "material": 0,
          "mode": 4
        }
      ]
    },
    {
      "name": "Object_7",
      "primitives": [
        {
          "attributes": {
            "NORMAL": 22,
            "POSITION": 21
          },
          "indices": 23,
          "material": 0,
          "mode": 4
        }
      ]
    },
    {
      "name": "Object_8",
      "primitives": [
        {
          "attributes": {
            "NORMAL": 25,
            "POSITION": 24
          },
          "indices": 26,
          "material": 0,
          "mode": 4
        }
      ]
    },
    {
      "name": "Object_9",
      "primitives": [
        {
          "attributes": {
            "NORMAL": 28,
            "POSITION": 27
          },
          "indices": 29,
          "material": 0,
          "mode": 4
        }
      ]
    },
    {
      "name": "Object_10",
      "primitives": [
        {
          "attributes": {
            "NORMAL": 31,
            "POSITION": 30
          },
          "indices": 32,
          "material": 0,
          "mode": 4
        }
      ]
    },
    {
      "name": "Object_11",
      "primitives": [
        {
          "attributes": {
            "NORMAL": 34,
            "POSITION": 33
          },
          "indices": 35,
          "material": 0,
          "mode": 4
        }
      ]
    },
    {
      "name": "Object_12",
      "primitives": [
        {
          "attributes": {
            "NORMAL": 37,
            "POSITION": 36
          },
          "indices": 38,
          "material": 0,
          "mode": 4
        }
      ]
    }
  ],
  "nodes": [
    {
      "children": [
        1
      ],
      "matrix": [
        1.0,
        0.0,
        0.0,
        0.0,
        0.0,
        -0.5468275547027586,
        -0.837245285511017,
        0.0,
        0.0,
        0.837245285511017,
        -0.5468275547027586,
        0.0,
        0.0,
        0.0,
        0.0,
        1.0
      ],
      "name": "Sketchfab_model"
    },
    {
      "children": [
        2,
        3,
        4,
        5,
        6,
        7,
        8,
        9,
        10,
        11,
        12,
        13,
        14
      ],
      "name": "batman.stl.cleaner.materialmerger.gles"
    },
    {
      "mesh": 0,
      "name": "Object_2"
    },
    {
      "mesh": 1,
      "name": "Object_3"
    },
    {
      "mesh": 2,
      "name": "Object_4"
    },
    {
      "mesh": 3,
      "name": "Object_5"
    },
    {
      "mesh": 4,
      "name": "Object_6"
    },
    {
      "mesh": 5,
      "name": "Object_7"
    },
    {
      "mesh": 6,
      "name": "Object_8"
    },
    {
      "mesh": 7,
      "name": "Object_9"
    },
    {
      "mesh": 8,
      "name": "Object_10"
    },
    {
      "mesh": 9,
      "name": "Object_11"
    },
    {
      "mesh": 10,
      "name": "Object_12"
    },
    {
      "mesh": 11,
      "name": "Object_13"
    },
    {
      "mesh": 12,
      "name": "Object_14"
    }
  ],
  "scene": 0,
  "scenes": [
    {
      "name": "Sketchfab_Scene",
      "nodes": [
        0
      ]
    }
  ]
}
